#!OML:ASF E:\Mandelcareful walks\Project 1\Capture day 1\Session 1\Subject1.ASF
:FULLY-SPECIFIED
:DEGREES
828
root 5.3002 15.7881 -0.139873 -63.3399 -89.0215 74.4741
lowerback 23.756 1.92998 2.83085
upperback 4.24644 2.89513 0.0207087
thorax -8.39655 1.17135 -2.45139
lowerneck -25.5455 11.7902 4.82064
upperneck 27.2482 18.7293 -11.4201
head 15.5498 6.72328 -1.49975
rclavicle 3.29983e-014 -2.3059e-014
rhumerus -20.3782 1.0291 -84.2708
rradius 45.0868
rwrist -9.02659
rhand -11.6823 -29.7504
rfingers 7.12502
rthumb 14.3631 -59.2336
lclavicle 3.29983e-014 -2.3059e-014
lhumerus -24.5843 -22.5416 87.9175
lradius 59.4245
lwrist 10.2306
lhand -18.8886 -12.0007
lfingers 7.12502
lthumb 7.41265 17.8495
rfemur -25.3203 -8.45344 2.00438
rtibia 37.6731
rfoot -13.8029 -16.5232
rtoes -19.8067
lfemur -40.7343 9.997 -9.96897
ltibia 53.5405
lfoot -17.2873 4.08383
ltoes -12.8483
829
root 5.24457 15.7866 -0.0503842 -29.6532 -89.0755 40.3228
lowerback 23.9871 1.91813 3.0769
upperback 4.17099 2.95712 0.0693602
thorax -8.58675 1.18955 -2.56873
lowerneck -25.2806 11.8053 5.03127
upperneck 27.3685 18.6765 -11.3932
head 15.5626 6.73223 -1.54637
rclavicle 1.07344e-014 -1.03368e-014
rhumerus -20.8461 1.40923 -84.6609
rradius 45.0753
rwrist -9.0341
rhand -11.5064 -29.8849
rfingers 7.12502
rthumb 14.5326 -59.3559
lclavicle 1.07344e-014 -1.03368e-014
lhumerus -24.9853 -22.8056 88.3838
lradius 59.5398
lwrist 10.1272
lhand -19.0089 -12.1625
lfingers 7.12502
lthumb 7.29652 17.6916
rfemur -23.7965 -8.45491 1.97982
rtibia 36.5719
rfoot -13.5821 -16.6996
rtoes -20.3053
lfemur -40.2349 9.27346 -9.73574
ltibia 53.9509
lfoot -18.106 4.15126
ltoes -12.4863
830
root 5.15133 15.795 0.0411219 -2.17445 -88.3358 11.6039
lowerback 23.9854 1.69661 3.41096
upperback 4.78052 2.71092 0.210479
thorax -7.9135 1.07435 -2.51311
lowerneck -25.2684 11.869 5.24827
upperneck 27.2305 18.708 -11.516
head 15.5428 6.76122 -1.61913
rclavicle -3.85642e-014 7.95139e-016
rhumerus -20.5004 1.9118 -84.9805
rradius 44.7474
rwrist -9.11549
rhand -11.2461 -30.1645
rfingers 7.12502
rthumb 14.7834 -59.6173
lclavicle -3.85642e-014 7.95139e-016
lhumerus -24.7082 -22.8937 88.701
lradius 59.6005
lwrist 10.1155
lhand -19.0294 -12.3757
lfingers 7.12502
lthumb 7.27674 17.4792
rfemur -20.9023 -8.57911 1.78679
rtibia 35.3354
rfoot -13.7341 -16.9275
rtoes -20.0706
lfemur -38.6394 7.89415 -9.41332
ltibia 54.184
lfoot -19.1782 4.05515
ltoes -11.1133
831
root 5.09237 15.792 0.139716 9.20526 -88.0809 -0.0236951
lowerback 23.3326 1.73711 3.47942
upperback 5.02201 2.75172 0.312037
thorax -7.30811 1.11016 -2.42168
lowerneck -25.339 11.9378 5.48216
upperneck 27.2486 18.7177 -11.5078
head 15.592 6.78716 -1.64441
rclavicle -4.21423e-014 -1.19271e-014
rhumerus -20.2754 2.55687 -85.2248
rradius 44.4263
rwrist -9.06639
rhand -10.7862 -30.5869
rfingers 7.12502
rthumb 15.2265 -60.0065
lclavicle -4.21423e-014 -1.19271e-014
lhumerus -24.6409 -22.8619 89.1188
lradius 59.7256
lwrist 9.89917
lhand -19.3999 -12.9309
lfingers 7.12502
lthumb 6.91911 16.936
rfemur -19.5869 -8.54411 1.73681
rtibia 34.0759
rfoot -13.1923 -17.0669
rtoes -19.0691
lfemur -38.3182 7.30194 -9.30808
ltibia 54.4564
lfoot -19.7676 4.12238
ltoes -10.2456
832
root 5.0408 15.7929 0.235976 14.8724 -87.9026 -5.81015
lowerback 22.5169 1.84089 3.26444
upperback 5.33502 2.79618 0.397634
thorax -6.55604 1.15506 -2.17943
lowerneck -25.4369 11.9255 5.67246
upperneck 26.8293 18.6451 -11.7472
head 15.4694 6.76642 -1.77748
rclavicle 4.01545e-014 -9.54166e-015
rhumerus -19.9201 3.29878 -85.3982
rradius 43.9309
rwrist -8.77267
rhand -10.8278 -29.4101
rfingers 7.12502
rthumb 15.1863 -58.8328
lclavicle 4.01545e-014 -9.54166e-015
lhumerus -24.3662 -22.7944 89.3999
lradius 59.9252
lwrist 9.61184
lhand -19.9394 -13.638
lfingers 7.12502
lthumb 6.39833 16.2454
rfemur -18.5184 -8.30612 1.5933
rtibia 32.7823
rfoot -12.5319 -17.6026
rtoes -19.5946
lfemur -38.1765 6.84506 -9.36579
ltibia 54.6851
lfoot -20.1121 4.24734
ltoes -9.26251
